<svg
  role="img"
  aria-label="GPS Energy"
  viewBox="0 0 520 320"
  xmlns="http://www.w3.org/2000/svg"
>
  <title>GPS Energy</title>
  <g transform="translate(260 110)">
    <g fill="#12396f">
      <rect x="-13" y="-112" width="26" height="40" rx="6" />
      <rect x="-13" y="-112" width="26" height="40" rx="6" transform="rotate(-46)" />
      <rect x="-13" y="-112" width="26" height="40" rx="6" transform="rotate(46)" />
      <rect x="-13" y="-112" width="26" height="40" rx="6" transform="rotate(-90)" />
      <rect x="-13" y="-112" width="26" height="40" rx="6" transform="rotate(90)" />
      <rect x="-13" y="-112" width="26" height="40" rx="6" transform="rotate(-134)" />
      <rect x="-13" y="-112" width="26" height="40" rx="6" transform="rotate(134)" />
      <circle r="96" />
    </g>
    <circle r="66" fill="#ffffff" />
    <g
      fill="none"
      stroke="#0b2d59"
      stroke-linecap="round"
      stroke-linejoin="round"
    >
      <path d="M-36 94 0 26l37 68" stroke-width="8" />
      <path d="M-18 62h36M-9 44l18 50M9 44l-18 50" stroke-width="6" />
      <path d="M-49-12 56 41" stroke-width="13" />
      <path d="M51 41h35" stroke-width="10" />
      <path d="M58 41v18" stroke-width="8" />
    </g>
    <ellipse
      cx="-63"
      cy="-18"
      rx="18"
      ry="38"
      fill="#ff6b00"
      transform="rotate(18 -63 -18)"
    />
    <circle cx="-50" cy="-12" r="6" fill="#ff6b00" />
    <path
      d="M-68 118c32-20 103-21 136 0"
      fill="none"
      stroke="#ff6b00"
      stroke-linecap="round"
      stroke-width="10"
    />
  </g>

  <g
    font-family="Inter Tight, Inter, Arial, sans-serif"
    font-weight="800"
    letter-spacing="0.04em"
  >
    <text x="180" y="228" fill="#12396f" font-size="58" text-anchor="end">
      GPS
    </text>
    <text x="200" y="228" fill="#ff6b00" font-size="58" text-anchor="start">
      ENERGY
    </text>
  </g>

  <g
    font-family="Inter Tight, Inter, Arial, sans-serif"
    font-weight="700"
    letter-spacing="0.14em"
    text-anchor="middle"
  >
    <line
      x1="52"
      x2="146"
      y1="274"
      y2="274"
      stroke="#ffb466"
      stroke-linecap="round"
      stroke-width="4"
    />
    <text x="260" y="282" fill="#0b2d59" font-size="20">
      ENERGIE &amp; PERFORMANCE
    </text>
    <line
      x1="374"
      x2="468"
      y1="274"
      y2="274"
      stroke="#ffb466"
      stroke-linecap="round"
      stroke-width="4"
    />
  </g>
</svg>
